{"title":"De Bende van Oss 2011 DVDrip Dutch English Subs Klam","uid":6954574,"size":1487798928,"categoryP":"video","categoryS":"movies","magnet":"?xt=urn:btih:b67671a3a014cb072d50012985166970fefd44b4&amp;dn=De+Bende+van+Oss+2011+DVDrip+Dutch+English+Subs+Klam&amp;tr=udp%3A%2F%2Ftracker.openbittorrent.com%3A80&amp;tr=udp%3A%2F%2Fopen.demonii.com%3A1337&amp;tr=udp%3A%2F%2Ftracker.coppersurfer.tk%3A6969&amp;tr=udp%3A%2F%2Fexodus.desync.com%3A6969","seeders":0,"leechers":1,"uploader":"Klambake","files":-1,"time":1326537107,"description":"With: Sylvia Hoeks, Frank Lammers en Marcel Musters\n\nOss, jaren '30. Johanna van Heesch wil breken met de misdaad die haar omringt. Haar echtgenoot Ties valt, wanneer hij weer is vrijgelaten uit de gevangenis, terug in zijn oude gedrag. Hoe harder Johanna probeert te ontsnappen van de gruweldaden gepleegd door De Bende van Oss, hoe verder ze wegzakt in oplichting, prostitutie, doodslag en moord.\n\nJohanna wants to change her life and quit the criminal gangs of the town of Oss in the 30ties of the 20th century. The harder she tries, the more she is involved. \n\nDutch spoken English softsubs(srt) included\n\n------------------------ Dutch Friends ------------------------\n---------------------------------------------------------------\n- Bezoek ook eens mijn vrienden op: &lt;a href=&quot; http://www.Film-Test.nl&quot; rel=&quot;nofollow&quot; target=&quot;_NEW&quot;&gt; http://www.Film-Test.nl&lt;/a&gt; --\n----- voor mijn Nederlandse Sync. ondertitels ---- en meer ----\n------- http://www.Film-Test.nl ---- voor Films en meer -------\n---------------------------------------------------------------\n\nGeneral:\n\nComplete name                    : De Bende van Oss\\De Bende van Oss.avi\nFormat                           : AVI\nFormat/Info                      : Audio Video Interleave\nFile size                        : 1.38 GiB\nDuration                         : 1h 47mn\nOverall bit rate                 : 1 852 Kbps\n\nVideo:\n\nFormat                           : MPEG-4 Visual\nFormat profile                   : Simple@L3\nFormat settings, BVOP            : No\nFormat settings, QPel            : No\nFormat settings, GMC             : No warppoints\nFormat settings, Matrix          : Default (H.263)\nCodec ID                         : XVID\nCodec ID/Hint                    : XviD\nDuration                         : 1h 47mn\nBit rate                         : 1 679 Kbps\nWidth                            : 720 pixels\nHeight                           : 304 pixels\nDisplay aspect ratio             : 2.35:1\nFrame rate                       : 25.000 fps\nColor space                      : YUV\nChroma subsampling               : 4:2:0\nBit depth                        : 8 bits\nScan type                        : Progressive\nCompression mode                 : Lossy\nBits/(Pixel*Frame)               : 0.307\nStream size                      : 1.26 GiB (91%)\nWriting library                  : XviD 1.1.2 (UTC 2006-11-01)\n\nAudio:\n\nFormat                           : MPEG Audio\nFormat version                   : Version 1\nFormat profile                   : Layer 3\nMode                             : Joint stereo\nMode extension                   : MS Stereo\nCodec ID                         : 55\nCodec ID/Hint                    : MP3\nDuration                         : 1h 47mn\nBit rate mode                    : Constant\nBit rate                         : 160 Kbps\nChannel(s)                       : 2 channels\nSampling rate                    : 48.0 KHz\nCompression mode                 : Lossy\nStream size                      : 123 MiB (9%)\nAlignment                        : Split accross interleaves\nInterleave, duration             : 24 ms (0.60 video frame)\nInterleave, preload duration     : 285 ms\nWriting library                  : LAME3.98\n","torrent":{"xt":"urn:btih:b67671a3a014cb072d50012985166970fefd44b4","amp;dn":"De+Bende+van+Oss+2011+DVDrip+Dutch+English+Subs+Klam","amp;tr":["udp%3A%2F%2Ftracker.openbittorrent.com%3A80","udp%3A%2F%2Fopen.demonii.com%3A1337","udp%3A%2F%2Ftracker.coppersurfer.tk%3A6969","udp%3A%2F%2Fexodus.desync.com%3A6969"],"infoHash":"b67671a3a014cb072d50012985166970fefd44b4","infoHashBuffer":{"type":"Buffer","data":[182,118,113,163,160,20,203,7,45,80,1,41,133,22,105,112,254,253,68,180]},"announce":[],"urlList":[]}}